# xmcd
#
# Track frame offsets:
#	150
#	13367
#	25305
#	41054
#	54784
#	71803
#	85825
#	101505
#	112396
#	128218
#	141619
#	156929
#	178044
#	194168
#	206661
#	220670
#
# Disc length: 3160 seconds
#
# Revision: 0
# Processed by: cddbd v1.5.1PL0 Copyright (c) Steve Scherf et al.
# Submitted via: MusicWizard 7.0.2
#
DISCID=fb0c5610
DTITLE=Various Artist - The Country Music Album - (C)1985 Arcade/Crown [CD 1/2)
DYEAR=1985
DGENRE=Country
TTITLE0=Charlie Rich - Behind Closed Doors
TTITLE1=Andy Williams - You Lay So Easy On My Mind
TTITLE2=Billie Jo Spears - Blanket On The Ground
TTITLE3=Kenny Rogers and Dottie West - Everytime Two Fools Collide
TTITLE4=Merle Haggard - It's All In The Game
TTITLE5=Hank Williams Jr. - It's Different With You
TTITLE6=Barbara Mandrell - After The Lovin'
TTITLE7=Glenn Campbell - Reason To Believe
TTITLE8=Willie Nelson - Always On My Mind
TTITLE9=Johnny Cash - The Chicken In Black
TTITLE10=Tammy Wynette - You Needed Me
TTITLE11=Tampall and Glaser Brothers - Maria Consuela
TTITLE12=Eddie Rabbitt - Step By Step
TTITLE13=Jimmy Lawton - What In Her World Did I Go
TTITLE14=Crystal Gayle - We Should Be Together
TTITLE15=Carpenters - Desperado
EXTD=The Country Music Album\n(c)1985 Arcade/Crown\nOrder-No:ADEH 168\nThe album has been compiled
EXTD=in association with: CBS/EMI/Phonogram/MCA/WEA\n
EXTT0=
EXTT1=
EXTT2=
EXTT3=
EXTT4=
EXTT5=
EXTT6=
EXTT7=
EXTT8=
EXTT9=
EXTT10=
EXTT11=
EXTT12=
EXTT13=
EXTT14=
EXTT15=
PLAYORDER=
